<svg width="428" height="171" viewBox="0 0 428 171" fill="none" xmlns="http://www.w3.org/2000/svg">
<path d="M0 138.875L11.8889 137.746C23.7778 136.617 47.5556 134.359 71.3333 124.762C95.1111 115.165 118.889 98.2288 142.667 91.2286C166.444 84.3413 190.222 87.2769 214 107.261C237.778 127.246 261.556 164.053 285.333 169.925C309.111 175.796 332.889 150.505 356.667 141.924C380.444 133.23 404.222 141.133 416.111 145.085L428 149.037V0H416.111C404.222 0 380.444 0 356.667 0C332.889 0 309.111 0 285.333 0C261.556 0 237.778 0 214 0C190.222 0 166.444 0 142.667 0C118.889 0 95.1111 0 71.3333 0C47.5556 0 23.7778 0 11.8889 0H0V138.875Z" fill="#3B60E1"/>
</svg>
